<svg xmlns="http://www.w3.org/2000/svg" viewBox="0 0 113.04 108.49"><defs><style>.cls-1{fill:#214cea;}</style></defs><g id="Layer_2" data-name="Layer 2"><g id="Layer_1-2" data-name="Layer 1"><path class="cls-1" d="M111.4,0C102.76,1.51,97,9.76,97,9.76,90.86,3.85,80.65,4.25,80.65,4.25c-1.23,19,14,20,14,20,1,6.15-3.46,19.78-10.17,19.55S66.91,29.06,60,22.14,39.52,10.29,30.81,10.29,2.43,12.75.75,21.47C-1.32,32.22,1.2,41.35,4.44,51.3S18.19,70.18,18.52,71.19s-.11,3.24-2,6.82S8.8,86.17,9.69,87.73s2.8,2,8.72,1.34,14.3-7.49,14.3-7.49c7.93,5.14,19.11,7.27,19.11,7.27,13.63,22.57,26.26,20.34,27.71,18.66s-1-6.7-3.23-13.41a43.25,43.25,0,0,1-2-13.41c30.62-9.72,29.5-56.32,29.5-56.32C118.31,16.77,111.4,0,111.4,0ZM49.14,76.89c-4,.9-12.85-.9-22.8-9.61S10.92,48,12.93,44.49c.87-1.51,4.58.11,7.94,4.13S32.71,57.33,37,59.46s11.95,5.92,13.18,6.7S53.16,76,49.14,76.89ZM51,52.42A4.92,4.92,0,1,1,56,47.5,4.91,4.91,0,0,1,51,52.42Z" transform="translate(0)"/></g></g></svg>