<svg xmlns="http://www.w3.org/2000/svg" viewBox="0 0 478.79 71.75"><g id="Layer_2" data-name="Layer 2">

<g id="Layer_1-2" data-name="Layer 1">
<path d="M10.87,69.5a19.58,19.58,0,0,1-7.8-6.13A15.29,15.29,0,0,1,0,54.7H11.3a7.7,7.7,0,0,0,3.21,5.6,11.66,11.66,0,0,0,7.33,2.25A12.37,12.37,0,0,0,29,60.78a5.36,5.36,0,0,0,2.54-4.55,4.69,4.69,0,0,0-2.83-4.41,53.93,53.93,0,0,0-9-3.16,85.47,85.47,0,0,1-9.67-3.16,17,17,0,0,1-6.47-4.69A12.32,12.32,0,0,1,.86,32.47a13,13,0,0,1,2.49-7.71,16.66,16.66,0,0,1,7.14-5.51,26.7,26.7,0,0,1,10.68-2q9,0,14.51,4.55A16.34,16.34,0,0,1,41.57,34.2H30.65a7.78,7.78,0,0,0-2.87-5.65,10.72,10.72,0,0,0-7-2.11q-4.32,0-6.61,1.63a5,5,0,0,0-2.3,4.31,4.67,4.67,0,0,0,1.53,3.54,10.83,10.83,0,0,0,3.74,2.25c1.46.55,3.64,1.23,6.51,2.06a71.28,71.28,0,0,1,9.44,3.12A17.64,17.64,0,0,1,39.47,48a12.33,12.33,0,0,1,2.77,8.14,13.64,13.64,0,0,1-2.49,8.05,16.49,16.49,0,0,1-7,5.56,26.23,26.23,0,0,1-10.68,2A26.61,26.61,0,0,1,10.87,69.5Z"/><path d="M59.58,68.35a24.46,24.46,0,0,1-9.48-9.58,28.88,28.88,0,0,1-3.45-14.32,28.4,28.4,0,0,1,3.54-14.28,24.47,24.47,0,0,1,9.68-9.57,28,28,0,0,1,13.7-3.36,28.05,28.05,0,0,1,13.7,3.36,24.45,24.45,0,0,1,9.67,9.57,28.41,28.41,0,0,1,3.55,14.28,27.82,27.82,0,0,1-3.64,14.27,25.29,25.29,0,0,1-9.92,9.63,28.65,28.65,0,0,1-13.84,3.4A27.14,27.14,0,0,1,59.58,68.35ZM81,60.25a15.3,15.3,0,0,0,6-6,19.43,19.43,0,0,0,2.3-9.77,19.85,19.85,0,0,0-2.21-9.73,14.89,14.89,0,0,0-5.84-6,16,16,0,0,0-7.85-2,15.72,15.72,0,0,0-7.81,2,14.33,14.33,0,0,0-5.7,6,20.55,20.55,0,0,0-2.11,9.73q0,8.52,4.36,13.17a14.39,14.39,0,0,0,11,4.64A16.25,16.25,0,0,0,81,60.25Z"/><path d="M145.56,19.83a18.37,18.37,0,0,1,7.71,7.66,25.13,25.13,0,0,1,2.78,12.26V70.89H145.23V41.38q0-7.08-3.55-10.87T132,26.73q-6.13,0-9.72,3.78t-3.6,10.87V70.89H107.77V18.1h10.92v6a18.17,18.17,0,0,1,6.85-5.08,22,22,0,0,1,8.86-1.82A23.61,23.61,0,0,1,145.56,19.83Z"/><path d="M166.05,30.17a24.09,24.09,0,0,1,21.6-12.93,23.07,23.07,0,0,1,10.88,2.45A22,22,0,0,1,206,25.77V18.1h11V70.89H206V63a21.72,21.72,0,0,1-7.57,6.23,24.47,24.47,0,0,1-23.37-1,24.85,24.85,0,0,1-9-9.77,30.07,30.07,0,0,1-3.3-14.22A29.29,29.29,0,0,1,166.05,30.17ZM203.7,35a15.89,15.89,0,0,0-5.89-6.13,15.63,15.63,0,0,0-21.6,6A18.87,18.87,0,0,0,174,44.26a19.68,19.68,0,0,0,2.25,9.58,15.92,15.92,0,0,0,5.94,6.27,15.17,15.17,0,0,0,7.8,2.15,15.48,15.48,0,0,0,7.86-2.1A15.83,15.83,0,0,0,203.7,54,19.38,19.38,0,0,0,206,44.45,19.17,19.17,0,0,0,203.7,35Z"/><path d="M245.72,19.49a18.83,18.83,0,0,1,9.43-2.25V28.55h-2.78q-6.42,0-9.72,3.25t-3.3,11.31V70.89H228.43V18.1h10.92v7.67A17.2,17.2,0,0,1,245.72,19.49Z"/><path d="M285.46,44.54,309.8,70.89H295L275.5,48.18V70.89H264.58V0H275.5V41.19L294.66,18.1H309.8Z"/><path d="M320.22,68.35a24.42,24.42,0,0,1-9.49-9.58,28.88,28.88,0,0,1-3.45-14.32,28.41,28.41,0,0,1,3.55-14.28,24.45,24.45,0,0,1,9.67-9.57,29.61,29.61,0,0,1,27.4,0,24.47,24.47,0,0,1,9.68,9.57,28.4,28.4,0,0,1,3.54,14.28,27.72,27.72,0,0,1-3.64,14.27,25.27,25.27,0,0,1-9.91,9.63,28.69,28.69,0,0,1-13.85,3.4A27.07,27.07,0,0,1,320.22,68.35Zm21.41-8.1a15.34,15.34,0,0,0,6-6,19.32,19.32,0,0,0,2.3-9.77,19.85,19.85,0,0,0-2.2-9.73,15,15,0,0,0-5.84-6,16,16,0,0,0-7.86-2,15.75,15.75,0,0,0-7.81,2,14.46,14.46,0,0,0-5.7,6,20.67,20.67,0,0,0-2.1,9.73q0,8.52,4.36,13.17a14.37,14.37,0,0,0,11,4.64A16.29,16.29,0,0,0,341.63,60.25Z"/><path d="M368.56,30.17a24.1,24.1,0,0,1,21.7-12.93,24.74,24.74,0,0,1,10.2,2.25,21,21,0,0,1,8,6V0h11V70.89h-11v-8A20.44,20.44,0,0,1,401,69.26a23,23,0,0,1-10.87,2.49,23.58,23.58,0,0,1-12.59-3.5,24.68,24.68,0,0,1-9-9.77,30.07,30.07,0,0,1-3.3-14.22A29.29,29.29,0,0,1,368.56,30.17ZM406.21,35a15.89,15.89,0,0,0-5.89-6.13,15.63,15.63,0,0,0-21.6,6,18.76,18.76,0,0,0-2.26,9.44,19.58,19.58,0,0,0,2.26,9.58,15.83,15.83,0,0,0,5.93,6.27,15.2,15.2,0,0,0,7.81,2.15,15.48,15.48,0,0,0,7.86-2.1A15.83,15.83,0,0,0,406.21,54a19.38,19.38,0,0,0,2.25-9.53A19.17,19.17,0,0,0,406.21,35Z"/><path d="M478.41,48.57H438.08a14.64,14.64,0,0,0,4.69,10.15,14.8,14.8,0,0,0,10.35,3.83q8.81,0,12.45-7.37h11.78a23.72,23.72,0,0,1-8.67,11.92q-6.27,4.65-15.56,4.65a27,27,0,0,1-13.56-3.4,24.24,24.24,0,0,1-9.39-9.58,29.29,29.29,0,0,1-3.4-14.32,29.94,29.94,0,0,1,3.31-14.32,23.19,23.19,0,0,1,9.29-9.53,27.6,27.6,0,0,1,13.75-3.36,26.87,26.87,0,0,1,13.31,3.26,23,23,0,0,1,9.1,9.15,27.55,27.55,0,0,1,3.26,13.55A34.94,34.94,0,0,1,478.41,48.57Zm-11-8.82a12.41,12.41,0,0,0-4.31-9.67,15.39,15.39,0,0,0-10.44-3.64A14.07,14.07,0,0,0,443,30a15,15,0,0,0-4.79,9.72Z"/></g></g></svg>