<svg xmlns="http://www.w3.org/2000/svg" viewBox="0 0 418.52 401.69"><defs><style>.cls-1{fill:#2c6dff;}</style></defs><g id="Layer_2" data-name="Layer 2"><g id="Layer_1-2" data-name="Layer 1"><path class="cls-1" d="M412.43,0c-32,5.58-53.22,36.14-53.22,36.14-22.8-21.87-60.6-20.4-60.6-20.4-4.56,70.35,51.72,74.07,51.72,74.07,3.72,22.77-12.83,73.24-37.65,72.4s-65-54.6-90.61-80.25-75.73-43.87-108-43.87S9,47.2,2.79,79.49C-4.88,119.31,4.45,153.11,16.44,190s50.89,69.9,52.14,73.62-.42,12-7.47,25.26-28.54,30.21-25.23,36,10.35,7.44,32.28,5S121.1,302,121.1,302c29.37,19,70.77,26.91,70.77,26.91,50.47,83.59,97.21,75.31,102.6,69.09s-3.72-24.81-12-49.63S275,298.74,275,298.74c113.38-36,109.24-208.51,109.24-208.51C438,62.11,412.43,0,412.43,0ZM181.93,284.7c-14.88,3.3-47.59-3.34-84.4-35.59s-57.1-71.57-49.66-84.4c3.24-5.58,17,.42,29.4,15.3s43.83,32.25,59.57,40.14,44.25,21.93,48.81,24.82S196.84,281.36,181.93,284.7Zm7-90.62a18.21,18.21,0,1,1,18.21-18.21A18.19,18.19,0,0,1,189,194.08Z"/></g></g></svg>